<mxfile host="app.diagrams.net" agent="Mozilla/5.0 (Windows NT 10.0; Win64; x64) AppleWebKit/537.36 (KHTML, like Gecko) Chrome/137.0.0.0 Safari/537.36" version="27.1.6">
  <diagram name="Page-1" id="Fhg6PAhq90dIDQd2QwH9">
    <mxGraphModel dx="1042" dy="527" grid="1" gridSize="10" guides="1" tooltips="1" connect="1" arrows="1" fold="1" page="1" pageScale="1" pageWidth="850" pageHeight="1100" math="0" shadow="0">
      <root>
        <mxCell id="0" />
        <mxCell id="1" parent="0" />
        <mxCell id="0oUlyI4e5EYNOjkOba_o-1" value="&lt;b&gt;PERUSAHAAN&lt;/b&gt;" style="rounded=0;whiteSpace=wrap;html=1;" parent="1" vertex="1">
          <mxGeometry x="160" y="430" width="120" height="60" as="geometry" />
        </mxCell>
        <mxCell id="0oUlyI4e5EYNOjkOba_o-2" value="&lt;b&gt;KARYAWAN&lt;/b&gt;" style="rounded=0;whiteSpace=wrap;html=1;" parent="1" vertex="1">
          <mxGeometry x="630" y="430" width="120" height="60" as="geometry" />
        </mxCell>
        <mxCell id="0oUlyI4e5EYNOjkOba_o-3" value="&lt;b&gt;PROYEK&lt;/b&gt;" style="rounded=0;whiteSpace=wrap;html=1;" parent="1" vertex="1">
          <mxGeometry x="632.5" y="710" width="130" height="60" as="geometry" />
        </mxCell>
        <mxCell id="0oUlyI4e5EYNOjkOba_o-4" value="&lt;b&gt;&lt;u&gt;id&lt;/u&gt;&lt;/b&gt;" style="ellipse;whiteSpace=wrap;html=1;" parent="1" vertex="1">
          <mxGeometry x="10" y="300" width="80" height="50" as="geometry" />
        </mxCell>
        <mxCell id="0oUlyI4e5EYNOjkOba_o-5" value="" style="endArrow=none;html=1;rounded=0;entryX=0.5;entryY=1;entryDx=0;entryDy=0;" parent="1" target="0oUlyI4e5EYNOjkOba_o-4" edge="1">
          <mxGeometry width="50" height="50" relative="1" as="geometry">
            <mxPoint x="182" y="430" as="sourcePoint" />
            <mxPoint x="450" y="540" as="targetPoint" />
          </mxGeometry>
        </mxCell>
        <mxCell id="0oUlyI4e5EYNOjkOba_o-6" value="&lt;b&gt;nama&lt;/b&gt;" style="ellipse;whiteSpace=wrap;html=1;" parent="1" vertex="1">
          <mxGeometry x="90" y="280" width="80" height="50" as="geometry" />
        </mxCell>
        <mxCell id="0oUlyI4e5EYNOjkOba_o-7" value="&lt;b&gt;alamat&lt;/b&gt;" style="ellipse;whiteSpace=wrap;html=1;" parent="1" vertex="1">
          <mxGeometry x="180" y="300" width="80" height="50" as="geometry" />
        </mxCell>
        <mxCell id="0oUlyI4e5EYNOjkOba_o-8" value="&lt;b&gt;email&lt;/b&gt;" style="ellipse;whiteSpace=wrap;html=1;" parent="1" vertex="1">
          <mxGeometry x="270" y="300" width="80" height="50" as="geometry" />
        </mxCell>
        <mxCell id="0oUlyI4e5EYNOjkOba_o-9" value="&lt;b&gt;logo&lt;/b&gt;" style="ellipse;whiteSpace=wrap;html=1;" parent="1" vertex="1">
          <mxGeometry x="360" y="310" width="80" height="50" as="geometry" />
        </mxCell>
        <mxCell id="0oUlyI4e5EYNOjkOba_o-11" value="" style="endArrow=none;html=1;rounded=0;entryX=0.5;entryY=1;entryDx=0;entryDy=0;exitX=0.363;exitY=-0.027;exitDx=0;exitDy=0;exitPerimeter=0;" parent="1" source="0oUlyI4e5EYNOjkOba_o-1" target="0oUlyI4e5EYNOjkOba_o-6" edge="1">
          <mxGeometry width="50" height="50" relative="1" as="geometry">
            <mxPoint x="200" y="420" as="sourcePoint" />
            <mxPoint x="250" y="370" as="targetPoint" />
          </mxGeometry>
        </mxCell>
        <mxCell id="0oUlyI4e5EYNOjkOba_o-12" value="" style="endArrow=none;html=1;rounded=0;entryX=0.5;entryY=1;entryDx=0;entryDy=0;" parent="1" target="0oUlyI4e5EYNOjkOba_o-7" edge="1">
          <mxGeometry width="50" height="50" relative="1" as="geometry">
            <mxPoint x="240" y="430" as="sourcePoint" />
            <mxPoint x="290" y="380" as="targetPoint" />
          </mxGeometry>
        </mxCell>
        <mxCell id="0oUlyI4e5EYNOjkOba_o-13" value="" style="endArrow=none;html=1;rounded=0;entryX=0.295;entryY=0.968;entryDx=0;entryDy=0;entryPerimeter=0;" parent="1" target="0oUlyI4e5EYNOjkOba_o-8" edge="1">
          <mxGeometry width="50" height="50" relative="1" as="geometry">
            <mxPoint x="250" y="430" as="sourcePoint" />
            <mxPoint x="300" y="380" as="targetPoint" />
          </mxGeometry>
        </mxCell>
        <mxCell id="0oUlyI4e5EYNOjkOba_o-14" value="" style="endArrow=none;html=1;rounded=0;entryX=0;entryY=1;entryDx=0;entryDy=0;" parent="1" target="0oUlyI4e5EYNOjkOba_o-9" edge="1">
          <mxGeometry width="50" height="50" relative="1" as="geometry">
            <mxPoint x="280" y="430" as="sourcePoint" />
            <mxPoint x="332" y="373" as="targetPoint" />
          </mxGeometry>
        </mxCell>
        <mxCell id="0oUlyI4e5EYNOjkOba_o-15" value="" style="endArrow=none;html=1;rounded=0;exitX=1;exitY=0.5;exitDx=0;exitDy=0;" parent="1" source="0oUlyI4e5EYNOjkOba_o-1" edge="1">
          <mxGeometry width="50" height="50" relative="1" as="geometry">
            <mxPoint x="400" y="490" as="sourcePoint" />
            <mxPoint x="360" y="460" as="targetPoint" />
          </mxGeometry>
        </mxCell>
        <mxCell id="0oUlyI4e5EYNOjkOba_o-16" value="&lt;b&gt;Memiliki&lt;/b&gt;" style="rhombus;whiteSpace=wrap;html=1;" parent="1" vertex="1">
          <mxGeometry x="360" y="415" width="105" height="90" as="geometry" />
        </mxCell>
        <mxCell id="0oUlyI4e5EYNOjkOba_o-17" value="&lt;b&gt;&lt;u&gt;id&lt;/u&gt;&lt;/b&gt;" style="ellipse;whiteSpace=wrap;html=1;" parent="1" vertex="1">
          <mxGeometry x="520" y="310" width="70" height="40" as="geometry" />
        </mxCell>
        <mxCell id="0oUlyI4e5EYNOjkOba_o-18" value="&lt;b&gt;nama&lt;/b&gt;" style="ellipse;whiteSpace=wrap;html=1;" parent="1" vertex="1">
          <mxGeometry x="595" y="310" width="70" height="40" as="geometry" />
        </mxCell>
        <mxCell id="0oUlyI4e5EYNOjkOba_o-19" value="&lt;b&gt;usia&lt;/b&gt;" style="ellipse;whiteSpace=wrap;html=1;" parent="1" vertex="1">
          <mxGeometry x="670" y="305" width="70" height="45" as="geometry" />
        </mxCell>
        <mxCell id="0oUlyI4e5EYNOjkOba_o-20" value="&lt;b&gt;gaji&lt;/b&gt;" style="ellipse;whiteSpace=wrap;html=1;" parent="1" vertex="1">
          <mxGeometry x="750" y="307.5" width="70" height="40" as="geometry" />
        </mxCell>
        <mxCell id="0oUlyI4e5EYNOjkOba_o-21" value="&lt;b&gt;divisi&lt;/b&gt;" style="ellipse;whiteSpace=wrap;html=1;" parent="1" vertex="1">
          <mxGeometry x="780" y="360" width="70" height="40" as="geometry" />
        </mxCell>
        <mxCell id="0oUlyI4e5EYNOjkOba_o-22" value="&lt;b&gt;&lt;font style=&quot;font-size: 10px;&quot;&gt;perusahaan_id&lt;/font&gt;&lt;/b&gt;" style="ellipse;whiteSpace=wrap;html=1;" parent="1" vertex="1">
          <mxGeometry x="440" y="360" width="80" height="40" as="geometry" />
        </mxCell>
        <mxCell id="0oUlyI4e5EYNOjkOba_o-23" value="" style="endArrow=none;html=1;rounded=0;entryX=0.305;entryY=1.05;entryDx=0;entryDy=0;entryPerimeter=0;" parent="1" target="0oUlyI4e5EYNOjkOba_o-22" edge="1">
          <mxGeometry width="50" height="50" relative="1" as="geometry">
            <mxPoint x="440" y="440" as="sourcePoint" />
            <mxPoint x="490" y="390" as="targetPoint" />
          </mxGeometry>
        </mxCell>
        <mxCell id="0oUlyI4e5EYNOjkOba_o-24" value="" style="endArrow=none;html=1;rounded=0;entryX=0;entryY=0.5;entryDx=0;entryDy=0;exitX=1;exitY=0.5;exitDx=0;exitDy=0;" parent="1" source="0oUlyI4e5EYNOjkOba_o-16" target="0oUlyI4e5EYNOjkOba_o-2" edge="1">
          <mxGeometry width="50" height="50" relative="1" as="geometry">
            <mxPoint x="400" y="490" as="sourcePoint" />
            <mxPoint x="450" y="440" as="targetPoint" />
          </mxGeometry>
        </mxCell>
        <mxCell id="0oUlyI4e5EYNOjkOba_o-25" value="" style="endArrow=none;html=1;rounded=0;entryX=0.5;entryY=1;entryDx=0;entryDy=0;exitX=0.14;exitY=-0.013;exitDx=0;exitDy=0;exitPerimeter=0;" parent="1" source="0oUlyI4e5EYNOjkOba_o-2" target="0oUlyI4e5EYNOjkOba_o-17" edge="1">
          <mxGeometry width="50" height="50" relative="1" as="geometry">
            <mxPoint x="570" y="430" as="sourcePoint" />
            <mxPoint x="620" y="380" as="targetPoint" />
          </mxGeometry>
        </mxCell>
        <mxCell id="0oUlyI4e5EYNOjkOba_o-26" value="" style="endArrow=none;html=1;rounded=0;entryX=0.614;entryY=0.98;entryDx=0;entryDy=0;entryPerimeter=0;" parent="1" target="0oUlyI4e5EYNOjkOba_o-18" edge="1">
          <mxGeometry width="50" height="50" relative="1" as="geometry">
            <mxPoint x="670" y="430" as="sourcePoint" />
            <mxPoint x="650" y="400" as="targetPoint" />
          </mxGeometry>
        </mxCell>
        <mxCell id="0oUlyI4e5EYNOjkOba_o-27" value="" style="endArrow=none;html=1;rounded=0;entryX=0.5;entryY=1;entryDx=0;entryDy=0;exitX=0.62;exitY=0;exitDx=0;exitDy=0;exitPerimeter=0;" parent="1" source="0oUlyI4e5EYNOjkOba_o-2" target="0oUlyI4e5EYNOjkOba_o-19" edge="1">
          <mxGeometry width="50" height="50" relative="1" as="geometry">
            <mxPoint x="792" y="479" as="sourcePoint" />
            <mxPoint x="700" y="400" as="targetPoint" />
          </mxGeometry>
        </mxCell>
        <mxCell id="0oUlyI4e5EYNOjkOba_o-29" value="" style="endArrow=none;html=1;rounded=0;entryX=0.32;entryY=1.03;entryDx=0;entryDy=0;entryPerimeter=0;" parent="1" target="0oUlyI4e5EYNOjkOba_o-20" edge="1">
          <mxGeometry width="50" height="50" relative="1" as="geometry">
            <mxPoint x="730" y="430" as="sourcePoint" />
            <mxPoint x="780" y="380" as="targetPoint" />
          </mxGeometry>
        </mxCell>
        <mxCell id="0oUlyI4e5EYNOjkOba_o-30" value="" style="endArrow=none;html=1;rounded=0;exitX=1;exitY=0;exitDx=0;exitDy=0;entryX=0.269;entryY=0.91;entryDx=0;entryDy=0;entryPerimeter=0;" parent="1" source="0oUlyI4e5EYNOjkOba_o-2" target="0oUlyI4e5EYNOjkOba_o-21" edge="1">
          <mxGeometry width="50" height="50" relative="1" as="geometry">
            <mxPoint x="770" y="450" as="sourcePoint" />
            <mxPoint x="820" y="400" as="targetPoint" />
          </mxGeometry>
        </mxCell>
        <mxCell id="0oUlyI4e5EYNOjkOba_o-31" value="&lt;b&gt;Mengerjakan&lt;/b&gt;" style="rhombus;whiteSpace=wrap;html=1;" parent="1" vertex="1">
          <mxGeometry x="645" y="550" width="105" height="80" as="geometry" />
        </mxCell>
        <mxCell id="0oUlyI4e5EYNOjkOba_o-32" value="" style="endArrow=none;html=1;rounded=0;exitX=0.5;exitY=0;exitDx=0;exitDy=0;" parent="1" source="0oUlyI4e5EYNOjkOba_o-31" edge="1">
          <mxGeometry width="50" height="50" relative="1" as="geometry">
            <mxPoint x="645" y="540" as="sourcePoint" />
            <mxPoint x="695" y="490" as="targetPoint" />
          </mxGeometry>
        </mxCell>
        <mxCell id="0oUlyI4e5EYNOjkOba_o-33" value="" style="endArrow=none;html=1;rounded=0;" parent="1" edge="1">
          <mxGeometry width="50" height="50" relative="1" as="geometry">
            <mxPoint x="700" y="710" as="sourcePoint" />
            <mxPoint x="700" y="630" as="targetPoint" />
          </mxGeometry>
        </mxCell>
        <mxCell id="0oUlyI4e5EYNOjkOba_o-34" value="&lt;b&gt;karyawan_id&lt;/b&gt;" style="ellipse;whiteSpace=wrap;html=1;" parent="1" vertex="1">
          <mxGeometry x="580" y="505" width="80" height="50" as="geometry" />
        </mxCell>
        <mxCell id="0oUlyI4e5EYNOjkOba_o-36" value="&lt;b&gt;proyek_id&lt;/b&gt;" style="ellipse;whiteSpace=wrap;html=1;" parent="1" vertex="1">
          <mxGeometry x="745" y="505" width="80" height="50" as="geometry" />
        </mxCell>
        <mxCell id="0oUlyI4e5EYNOjkOba_o-37" value="" style="endArrow=none;html=1;rounded=0;entryX=0.373;entryY=1.044;entryDx=0;entryDy=0;entryPerimeter=0;" parent="1" target="0oUlyI4e5EYNOjkOba_o-36" edge="1">
          <mxGeometry width="50" height="50" relative="1" as="geometry">
            <mxPoint x="740" y="580" as="sourcePoint" />
            <mxPoint x="790" y="530" as="targetPoint" />
          </mxGeometry>
        </mxCell>
        <mxCell id="0oUlyI4e5EYNOjkOba_o-38" value="" style="endArrow=none;html=1;rounded=0;exitX=0.162;exitY=0.28;exitDx=0;exitDy=0;exitPerimeter=0;" parent="1" source="0oUlyI4e5EYNOjkOba_o-31" edge="1">
          <mxGeometry width="50" height="50" relative="1" as="geometry">
            <mxPoint x="582.5" y="605" as="sourcePoint" />
            <mxPoint x="632.5" y="555" as="targetPoint" />
          </mxGeometry>
        </mxCell>
        <mxCell id="0oUlyI4e5EYNOjkOba_o-39" value="&lt;b&gt;&lt;u&gt;id&lt;/u&gt;&lt;/b&gt;" style="ellipse;whiteSpace=wrap;html=1;" parent="1" vertex="1">
          <mxGeometry x="460" y="810" width="70" height="40" as="geometry" />
        </mxCell>
        <mxCell id="0oUlyI4e5EYNOjkOba_o-41" value="&lt;b&gt;nama&lt;/b&gt;" style="ellipse;whiteSpace=wrap;html=1;" parent="1" vertex="1">
          <mxGeometry x="525" y="850" width="70" height="40" as="geometry" />
        </mxCell>
        <mxCell id="0oUlyI4e5EYNOjkOba_o-43" value="&lt;b&gt;deadline&lt;/b&gt;" style="ellipse;whiteSpace=wrap;html=1;" parent="1" vertex="1">
          <mxGeometry x="600" y="870" width="70" height="40" as="geometry" />
        </mxCell>
        <mxCell id="0oUlyI4e5EYNOjkOba_o-44" value="&lt;b&gt;perusahaan_id&lt;/b&gt;" style="ellipse;whiteSpace=wrap;html=1;" parent="1" vertex="1">
          <mxGeometry x="290" y="680" width="100" height="50" as="geometry" />
        </mxCell>
        <mxCell id="0oUlyI4e5EYNOjkOba_o-45" value="&lt;b&gt;status&lt;/b&gt;&lt;span style=&quot;color: rgba(0, 0, 0, 0); font-family: monospace; font-size: 0px; text-align: start; text-wrap-mode: nowrap;&quot;&gt;%3CmxGraphModel%3E%3Croot%3E%3CmxCell%20id%3D%220%22%2F%3E%3CmxCell%20id%3D%221%22%20parent%3D%220%22%2F%3E%3CmxCell%20id%3D%222%22%20value%3D%22%26lt%3Bb%26gt%3Bnama%26lt%3B%2Fb%26gt%3B%22%20style%3D%22ellipse%3BwhiteSpace%3Dwrap%3Bhtml%3D1%3B%22%20vertex%3D%221%22%20parent%3D%221%22%3E%3CmxGeometry%20x%3D%22610%22%20y%3D%22830%22%20width%3D%2270%22%20height%3D%2240%22%20as%3D%22geometry%22%2F%3E%3C%2FmxCell%3E%3C%2Froot%3E%3C%2FmxGraphModel%3E&lt;/span&gt;" style="ellipse;whiteSpace=wrap;html=1;" parent="1" vertex="1">
          <mxGeometry x="680" y="870" width="70" height="40" as="geometry" />
        </mxCell>
        <mxCell id="0oUlyI4e5EYNOjkOba_o-46" value="&lt;b&gt;client&lt;/b&gt;" style="ellipse;whiteSpace=wrap;html=1;" parent="1" vertex="1">
          <mxGeometry x="780" y="810" width="70" height="40" as="geometry" />
        </mxCell>
        <mxCell id="0oUlyI4e5EYNOjkOba_o-47" value="&lt;b&gt;nilai&lt;/b&gt;" style="ellipse;whiteSpace=wrap;html=1;" parent="1" vertex="1">
          <mxGeometry x="755" y="870" width="70" height="40" as="geometry" />
        </mxCell>
        <mxCell id="0oUlyI4e5EYNOjkOba_o-48" value="" style="endArrow=none;html=1;rounded=0;entryX=0.25;entryY=1;entryDx=0;entryDy=0;" parent="1" target="0oUlyI4e5EYNOjkOba_o-3" edge="1">
          <mxGeometry width="50" height="50" relative="1" as="geometry">
            <mxPoint x="530" y="830" as="sourcePoint" />
            <mxPoint x="580" y="780" as="targetPoint" />
          </mxGeometry>
        </mxCell>
        <mxCell id="0oUlyI4e5EYNOjkOba_o-49" value="" style="endArrow=none;html=1;rounded=0;entryX=0.405;entryY=1.013;entryDx=0;entryDy=0;entryPerimeter=0;" parent="1" target="0oUlyI4e5EYNOjkOba_o-3" edge="1">
          <mxGeometry width="50" height="50" relative="1" as="geometry">
            <mxPoint x="590" y="860" as="sourcePoint" />
            <mxPoint x="640" y="810" as="targetPoint" />
          </mxGeometry>
        </mxCell>
        <mxCell id="0oUlyI4e5EYNOjkOba_o-50" value="" style="endArrow=none;html=1;rounded=0;entryX=0.5;entryY=1;entryDx=0;entryDy=0;" parent="1" target="0oUlyI4e5EYNOjkOba_o-3" edge="1">
          <mxGeometry width="50" height="50" relative="1" as="geometry">
            <mxPoint x="645" y="870" as="sourcePoint" />
            <mxPoint x="695" y="820" as="targetPoint" />
          </mxGeometry>
        </mxCell>
        <mxCell id="0oUlyI4e5EYNOjkOba_o-51" value="" style="endArrow=none;html=1;rounded=0;entryX=0.676;entryY=1.053;entryDx=0;entryDy=0;entryPerimeter=0;exitX=0.5;exitY=0;exitDx=0;exitDy=0;" parent="1" source="0oUlyI4e5EYNOjkOba_o-45" target="0oUlyI4e5EYNOjkOba_o-3" edge="1">
          <mxGeometry width="50" height="50" relative="1" as="geometry">
            <mxPoint x="660" y="990" as="sourcePoint" />
            <mxPoint x="710" y="940" as="targetPoint" />
          </mxGeometry>
        </mxCell>
        <mxCell id="0oUlyI4e5EYNOjkOba_o-52" value="" style="endArrow=none;html=1;rounded=0;exitX=0.217;exitY=0;exitDx=0;exitDy=0;exitPerimeter=0;entryX=0.855;entryY=1.067;entryDx=0;entryDy=0;entryPerimeter=0;" parent="1" source="0oUlyI4e5EYNOjkOba_o-47" target="0oUlyI4e5EYNOjkOba_o-3" edge="1">
          <mxGeometry width="50" height="50" relative="1" as="geometry">
            <mxPoint x="740" y="840" as="sourcePoint" />
            <mxPoint x="790" y="790" as="targetPoint" />
          </mxGeometry>
        </mxCell>
        <mxCell id="0oUlyI4e5EYNOjkOba_o-54" value="" style="endArrow=none;html=1;rounded=0;entryX=1;entryY=1;entryDx=0;entryDy=0;exitX=0.5;exitY=0;exitDx=0;exitDy=0;" parent="1" source="0oUlyI4e5EYNOjkOba_o-46" target="0oUlyI4e5EYNOjkOba_o-3" edge="1">
          <mxGeometry width="50" height="50" relative="1" as="geometry">
            <mxPoint x="790" y="800" as="sourcePoint" />
            <mxPoint x="840" y="750" as="targetPoint" />
          </mxGeometry>
        </mxCell>
        <mxCell id="0oUlyI4e5EYNOjkOba_o-56" value="&lt;b&gt;Mengelola&lt;/b&gt;" style="rhombus;whiteSpace=wrap;html=1;" parent="1" vertex="1">
          <mxGeometry x="365" y="590" width="120" height="80" as="geometry" />
        </mxCell>
        <mxCell id="0oUlyI4e5EYNOjkOba_o-57" value="" style="endArrow=none;html=1;rounded=0;entryX=0.817;entryY=0.775;entryDx=0;entryDy=0;entryPerimeter=0;" parent="1" target="0oUlyI4e5EYNOjkOba_o-56" edge="1">
          <mxGeometry width="50" height="50" relative="1" as="geometry">
            <mxPoint x="630" y="740" as="sourcePoint" />
            <mxPoint x="575" y="690" as="targetPoint" />
          </mxGeometry>
        </mxCell>
        <mxCell id="0oUlyI4e5EYNOjkOba_o-58" value="" style="endArrow=none;html=1;rounded=0;entryX=0;entryY=1;entryDx=0;entryDy=0;" parent="1" target="0oUlyI4e5EYNOjkOba_o-56" edge="1">
          <mxGeometry width="50" height="50" relative="1" as="geometry">
            <mxPoint x="360" y="680" as="sourcePoint" />
            <mxPoint x="390" y="640" as="targetPoint" />
          </mxGeometry>
        </mxCell>
        <mxCell id="0oUlyI4e5EYNOjkOba_o-60" value="&lt;b&gt;1&lt;/b&gt;" style="text;html=1;align=center;verticalAlign=middle;whiteSpace=wrap;rounded=0;" parent="1" vertex="1">
          <mxGeometry x="270" y="430" width="60" height="30" as="geometry" />
        </mxCell>
        <mxCell id="0oUlyI4e5EYNOjkOba_o-61" value="&lt;b&gt;N&lt;/b&gt;" style="text;html=1;align=center;verticalAlign=middle;whiteSpace=wrap;rounded=0;" parent="1" vertex="1">
          <mxGeometry x="590" y="700" width="60" height="30" as="geometry" />
        </mxCell>
        <mxCell id="0oUlyI4e5EYNOjkOba_o-62" value="&lt;b&gt;N&lt;/b&gt;" style="text;html=1;align=center;verticalAlign=middle;whiteSpace=wrap;rounded=0;" parent="1" vertex="1">
          <mxGeometry x="680" y="500" width="60" height="30" as="geometry" />
        </mxCell>
        <mxCell id="0oUlyI4e5EYNOjkOba_o-63" value="&lt;b&gt;N&lt;/b&gt;" style="text;html=1;align=center;verticalAlign=middle;whiteSpace=wrap;rounded=0;" parent="1" vertex="1">
          <mxGeometry x="690" y="680" width="60" height="30" as="geometry" />
        </mxCell>
        <mxCell id="0oUlyI4e5EYNOjkOba_o-65" value="" style="endArrow=none;html=1;rounded=0;entryX=0.357;entryY=0.973;entryDx=0;entryDy=0;exitX=0.167;exitY=0.25;exitDx=0;exitDy=0;exitPerimeter=0;entryPerimeter=0;" parent="1" source="0oUlyI4e5EYNOjkOba_o-56" target="0oUlyI4e5EYNOjkOba_o-1" edge="1">
          <mxGeometry width="50" height="50" relative="1" as="geometry">
            <mxPoint x="385" y="610" as="sourcePoint" />
            <mxPoint x="220" y="490" as="targetPoint" />
          </mxGeometry>
        </mxCell>
        <mxCell id="0oUlyI4e5EYNOjkOba_o-64" value="&lt;b&gt;1&lt;/b&gt;" style="text;html=1;align=center;verticalAlign=middle;whiteSpace=wrap;rounded=0;" parent="1" vertex="1">
          <mxGeometry x="230" y="490" width="60" height="30" as="geometry" />
        </mxCell>
        <mxCell id="0oUlyI4e5EYNOjkOba_o-66" value="&lt;b&gt;N&lt;/b&gt;" style="text;html=1;align=center;verticalAlign=middle;whiteSpace=wrap;rounded=0;" parent="1" vertex="1">
          <mxGeometry x="582.5" y="440" width="60" height="30" as="geometry" />
        </mxCell>
      </root>
    </mxGraphModel>
  </diagram>
</mxfile>
